<mxfile host="" modified="2020-05-25T17:15:24.321Z" agent="5.0 (Macintosh; Intel Mac OS X 10_13_6) AppleWebKit/537.36 (KHTML, like Gecko) Code/1.45.1 Chrome/78.0.3904.130 Electron/7.2.4 Safari/537.36" etag="nWAtNy0PFXh5hb7ym32r" version="13.1.3">
    <diagram id="6hGFLwfOUW9BJ-s0fimq" name="Page-1">
        <mxGraphModel dx="968" dy="645" grid="1" gridSize="10" guides="1" tooltips="1" connect="1" arrows="1" fold="1" page="1" pageScale="1" pageWidth="827" pageHeight="1169" background="#FFFFFF" math="0" shadow="0">
            <root>
                <mxCell id="0"/>
                <mxCell id="1" parent="0"/>
                <mxCell id="9" value="&lt;font color=&quot;#000000&quot;&gt;ヘッダー&lt;/font&gt;" style="rounded=0;whiteSpace=wrap;html=1;fillColor=#ffff88;strokeColor=#36393d;" vertex="1" parent="1">
                    <mxGeometry x="40" y="70" width="400" height="50" as="geometry"/>
                </mxCell>
                <mxCell id="2" value="&lt;font color=&quot;#000000&quot;&gt;ベースページ&lt;/font&gt;" style="rounded=0;whiteSpace=wrap;html=1;fillColor=#ffff88;strokeColor=#36393d;" parent="1" vertex="1">
                    <mxGeometry x="40" y="120" width="400" height="220" as="geometry"/>
                </mxCell>
                <mxCell id="3" value="&lt;font color=&quot;#000000&quot;&gt;イラスト&lt;/font&gt;" style="rounded=0;whiteSpace=wrap;html=1;fillColor=#fad9d5;strokeColor=#ae4132;" parent="1" vertex="1">
                    <mxGeometry x="40" y="610" width="120" height="60" as="geometry"/>
                </mxCell>
                <mxCell id="4" value="&lt;font color=&quot;#000000&quot;&gt;Web&lt;/font&gt;" style="rounded=0;whiteSpace=wrap;html=1;fillColor=#fad9d5;strokeColor=#ae4132;" parent="1" vertex="1">
                    <mxGeometry x="40" y="680" width="120" height="60" as="geometry"/>
                </mxCell>
                <mxCell id="5" value="&lt;font color=&quot;#000000&quot;&gt;about me&lt;/font&gt;" style="rounded=0;whiteSpace=wrap;html=1;fillColor=#fad9d5;strokeColor=#ae4132;" parent="1" vertex="1">
                    <mxGeometry x="40" y="350" width="120" height="60" as="geometry"/>
                </mxCell>
                <mxCell id="6" value="&lt;font color=&quot;#000000&quot;&gt;表紙イラスト&lt;/font&gt;" style="rounded=0;whiteSpace=wrap;html=1;fillColor=#FFFFFF;strokeColor=#36393d;" vertex="1" parent="1">
                    <mxGeometry x="180" y="80" width="250" height="250" as="geometry"/>
                </mxCell>
                <mxCell id="7" value="&lt;font color=&quot;#000000&quot;&gt;表紙ロゴ&lt;/font&gt;" style="rounded=0;whiteSpace=wrap;html=1;fillColor=#FFFFFF;strokeColor=#36393d;" vertex="1" parent="1">
                    <mxGeometry x="50" y="80" width="120" height="30" as="geometry"/>
                </mxCell>
                <mxCell id="8" value="&lt;font color=&quot;#000000&quot;&gt;佐藤エリ　（eri sato）&lt;br&gt;1988年生まれ　神奈川県在住&lt;br&gt;&lt;br&gt;Webデザイナー、イラストレーター&lt;br&gt;&lt;br&gt;建築機械メーカーの事務で働く傍ら、個人で雑貨デザイナーを営む。その後出産を機に、2019年Webデザイナーへ転職。&lt;br&gt;現在は株式会社Loseに所属するパラレルワーカー。&lt;br&gt;&lt;br&gt;イラストを中心としたクリエイティブが得意。&lt;br&gt;&lt;br&gt;&lt;/font&gt;" style="rounded=0;whiteSpace=wrap;html=1;fillColor=#FFFFFF;strokeColor=#36393d;align=left;verticalAlign=top;" vertex="1" parent="1">
                    <mxGeometry x="170" y="351" width="390" height="169" as="geometry"/>
                </mxCell>
                <mxCell id="10" value="&lt;font color=&quot;#000000&quot;&gt;メニュー一覧&lt;/font&gt;" style="rounded=0;whiteSpace=wrap;html=1;fillColor=#FFFFFF;strokeColor=#36393d;" vertex="1" parent="1">
                    <mxGeometry x="50" y="130" width="120" height="210" as="geometry"/>
                </mxCell>
                <mxCell id="12" value="&lt;font color=&quot;#000000&quot;&gt;2カラム&lt;br&gt;&lt;br&gt;フォント&lt;br&gt;&lt;br&gt;色&lt;br&gt;&lt;br&gt;&lt;br&gt;&lt;/font&gt;" style="rounded=0;whiteSpace=wrap;html=1;fillColor=#f9f7ed;strokeColor=#36393d;align=left;verticalAlign=top;" vertex="1" parent="1">
                    <mxGeometry x="570" y="350" width="400" height="250" as="geometry"/>
                </mxCell>
                <mxCell id="14" value="&lt;font color=&quot;#000000&quot;&gt;フェミニン&lt;/font&gt;" style="rounded=0;whiteSpace=wrap;html=1;fillColor=#FFFFFF;strokeColor=#36393d;" vertex="1" parent="1">
                    <mxGeometry x="180" y="610" width="120" height="60" as="geometry"/>
                </mxCell>
                <mxCell id="15" value="&lt;font color=&quot;#000000&quot;&gt;マニッシュ&lt;/font&gt;" style="rounded=0;whiteSpace=wrap;html=1;fillColor=#FFFFFF;strokeColor=#36393d;" vertex="1" parent="1">
                    <mxGeometry x="320" y="610" width="120" height="60" as="geometry"/>
                </mxCell>
                <mxCell id="16" value="&lt;font color=&quot;#000000&quot;&gt;リアルクローズ&lt;/font&gt;" style="rounded=0;whiteSpace=wrap;html=1;fillColor=#FFFFFF;strokeColor=#36393d;" vertex="1" parent="1">
                    <mxGeometry x="460" y="610" width="120" height="60" as="geometry"/>
                </mxCell>
                <mxCell id="19" value="&lt;font color=&quot;#000000&quot;&gt;Twitter、インスタグラム、note&lt;/font&gt;" style="rounded=0;whiteSpace=wrap;html=1;fillColor=#fad9d5;strokeColor=#ae4132;" vertex="1" parent="1">
                    <mxGeometry x="60" y="300" width="100" height="30" as="geometry"/>
                </mxCell>
                <mxCell id="21" value="&lt;font color=&quot;#000000&quot;&gt;お問合せ&lt;/font&gt;" style="rounded=0;whiteSpace=wrap;html=1;fillColor=#fad9d5;strokeColor=#ae4132;" vertex="1" parent="1">
                    <mxGeometry x="60" y="260" width="100" height="30" as="geometry"/>
                </mxCell>
                <mxCell id="22" value="&lt;font color=&quot;#000000&quot;&gt;about me&lt;br&gt;&lt;/font&gt;" style="rounded=0;whiteSpace=wrap;html=1;fillColor=#fad9d5;strokeColor=#ae4132;" vertex="1" parent="1">
                    <mxGeometry x="60" y="140" width="100" height="30" as="geometry"/>
                </mxCell>
                <mxCell id="23" value="&lt;font color=&quot;#000000&quot;&gt;illustration&lt;br&gt;&lt;/font&gt;" style="rounded=0;whiteSpace=wrap;html=1;fillColor=#fad9d5;strokeColor=#ae4132;" vertex="1" parent="1">
                    <mxGeometry x="60" y="170" width="100" height="30" as="geometry"/>
                </mxCell>
                <mxCell id="25" value="&lt;font color=&quot;#000000&quot;&gt;My production&lt;br&gt;&lt;/font&gt;" style="rounded=0;whiteSpace=wrap;html=1;fillColor=#fad9d5;strokeColor=#ae4132;" vertex="1" parent="1">
                    <mxGeometry x="60" y="230" width="100" height="30" as="geometry"/>
                </mxCell>
                <mxCell id="26" value="&lt;font color=&quot;#000000&quot;&gt;Web&lt;br&gt;&lt;/font&gt;" style="rounded=0;whiteSpace=wrap;html=1;fillColor=#fad9d5;strokeColor=#ae4132;" vertex="1" parent="1">
                    <mxGeometry x="60" y="200" width="100" height="30" as="geometry"/>
                </mxCell>
                <mxCell id="27" value="&lt;font color=&quot;#000000&quot;&gt;ベースページ&lt;/font&gt;" style="rounded=0;whiteSpace=wrap;html=1;fillColor=#ffff88;strokeColor=#36393d;" vertex="1" parent="1">
                    <mxGeometry x="480" y="70" width="200" height="260" as="geometry"/>
                </mxCell>
                <mxCell id="28" value="&lt;font color=&quot;#000000&quot;&gt;表紙ロゴ&lt;/font&gt;" style="rounded=0;whiteSpace=wrap;html=1;fillColor=#FFFFFF;strokeColor=#36393d;" vertex="1" parent="1">
                    <mxGeometry x="490" y="80" width="30" height="30" as="geometry"/>
                </mxCell>
                <mxCell id="29" value="&lt;font color=&quot;#000000&quot;&gt;Twitter、インスタグラム&lt;/font&gt;" style="rounded=0;whiteSpace=wrap;html=1;fillColor=#fad9d5;strokeColor=#ae4132;" vertex="1" parent="1">
                    <mxGeometry x="480" y="300" width="136" height="30" as="geometry"/>
                </mxCell>
                <mxCell id="30" value="&lt;font color=&quot;#000000&quot;&gt;メニュー一覧&lt;/font&gt;" style="rounded=0;whiteSpace=wrap;html=1;fillColor=#FFFFFF;strokeColor=#36393d;" vertex="1" parent="1">
                    <mxGeometry x="620" y="80" width="50" height="30" as="geometry"/>
                </mxCell>
                <mxCell id="31" value="&lt;font color=&quot;#000000&quot;&gt;表紙イラスト&lt;/font&gt;" style="rounded=0;whiteSpace=wrap;html=1;fillColor=#FFFFFF;strokeColor=#36393d;" vertex="1" parent="1">
                    <mxGeometry x="480" y="120" width="200" height="170" as="geometry"/>
                </mxCell>
                <mxCell id="32" value="&lt;span style=&quot;color: rgb(0 , 0 , 0)&quot;&gt;My production&lt;/span&gt;" style="rounded=0;whiteSpace=wrap;html=1;fillColor=#fad9d5;strokeColor=#ae4132;" vertex="1" parent="1">
                    <mxGeometry x="40" y="750" width="120" height="60" as="geometry"/>
                </mxCell>
                <mxCell id="33" value="&lt;font color=&quot;#000000&quot;&gt;note&lt;/font&gt;" style="rounded=0;whiteSpace=wrap;html=1;fillColor=#FFFFFF;strokeColor=#36393d;" vertex="1" parent="1">
                    <mxGeometry x="180" y="750" width="120" height="60" as="geometry"/>
                </mxCell>
                <mxCell id="34" value="&lt;font color=&quot;#000000&quot;&gt;インスタマーケ&lt;br&gt;&lt;/font&gt;" style="rounded=0;whiteSpace=wrap;html=1;fillColor=#FFFFFF;strokeColor=#36393d;" vertex="1" parent="1">
                    <mxGeometry x="320" y="750" width="120" height="60" as="geometry"/>
                </mxCell>
                <mxCell id="35" value="&lt;font color=&quot;#000000&quot;&gt;イベント企画&lt;br&gt;&lt;/font&gt;" style="rounded=0;whiteSpace=wrap;html=1;fillColor=#FFFFFF;strokeColor=#36393d;" vertex="1" parent="1">
                    <mxGeometry x="600" y="750" width="120" height="60" as="geometry"/>
                </mxCell>
                <mxCell id="36" value="&lt;font color=&quot;#000000&quot;&gt;ウェビナー&lt;br&gt;&lt;/font&gt;" style="rounded=0;whiteSpace=wrap;html=1;fillColor=#FFFFFF;strokeColor=#36393d;" vertex="1" parent="1">
                    <mxGeometry x="740" y="750" width="120" height="60" as="geometry"/>
                </mxCell>
                <mxCell id="38" value="&lt;span style=&quot;color: rgb(0 , 0 , 0)&quot;&gt;お問合せ&lt;/span&gt;" style="rounded=0;whiteSpace=wrap;html=1;fillColor=#fad9d5;strokeColor=#ae4132;" vertex="1" parent="1">
                    <mxGeometry x="40" y="820" width="120" height="60" as="geometry"/>
                </mxCell>
                <mxCell id="40" value="&lt;font color=&quot;#000000&quot;&gt;3日以内に返信がない場合、お手数をおかけいたしますが、以下アドレスまでご連絡くださいませ。&lt;br&gt;e-sato@eririum.com&lt;br&gt;&lt;br&gt;お名前&lt;br&gt;&lt;br&gt;メールアドレス&lt;br&gt;&lt;br&gt;TEL番号&lt;br&gt;&lt;br&gt;ご用件&lt;br&gt;&lt;br&gt;&lt;br&gt;&lt;br&gt;&lt;/font&gt;" style="rounded=0;whiteSpace=wrap;html=1;fillColor=#FFFFFF;strokeColor=#36393d;align=left;verticalAlign=top;" vertex="1" parent="1">
                    <mxGeometry x="180" y="820" width="390" height="180" as="geometry"/>
                </mxCell>
                <mxCell id="41" value="&lt;font color=&quot;#080808&quot;&gt;水族館&lt;/font&gt;" style="rounded=0;whiteSpace=wrap;html=1;fillColor=#FFFFFF;strokeColor=#36393d;" vertex="1" parent="1">
                    <mxGeometry x="460" y="750" width="120" height="60" as="geometry"/>
                </mxCell>
                <mxCell id="42" value="&lt;font color=&quot;#000000&quot;&gt;Twitter、インスタグラム、note&lt;/font&gt;" style="rounded=0;whiteSpace=wrap;html=1;fillColor=#fad9d5;strokeColor=#ae4132;" vertex="1" parent="1">
                    <mxGeometry x="40" y="1020" width="120" height="60" as="geometry"/>
                </mxCell>
                <mxCell id="43" value="&lt;font color=&quot;#000000&quot;&gt;それぞれのアイコン設置&lt;/font&gt;" style="rounded=0;whiteSpace=wrap;html=1;fillColor=#FFFFFF;strokeColor=#36393d;" vertex="1" parent="1">
                    <mxGeometry x="180" y="1020" width="120" height="60" as="geometry"/>
                </mxCell>
            </root>
        </mxGraphModel>
    </diagram>
</mxfile>